<svg width="680" height="232" viewBox="0 0 680 232" fill="none" xmlns="http://www.w3.org/2000/svg">
<g clip-path="url(#clip0_15_2)">
<mask id="mask0_15_2" style="mask-type:luminance" maskUnits="userSpaceOnUse" x="0" y="0" width="680" height="232">
<path d="M680 0H0V232H680V0Z" fill="white"/>
</mask>
<g mask="url(#mask0_15_2)">
<path d="M0.0698242 142.8V2.8H25.2698V142.8H0.0698242ZM53.1948 142.8V43.6H78.3948V142.8H53.1948ZM65.7948 32C61.2615 32 57.3948 30.5334 54.1948 27.6C51.1282 24.6667 49.5948 20.8 49.5948 16C49.5948 11.2 51.1282 7.33334 54.1948 4.4C57.3948 1.46667 61.2615 0 65.7948 0C70.4615 0 74.3282 1.46667 77.3948 4.4C80.4615 7.33334 81.9948 11.2 81.9948 16C81.9948 20.8 80.4615 24.6667 77.3948 27.6C74.3282 30.5334 70.4615 32 65.7948 32ZM106.32 142.8V43.6H131.12V56.6H134.72C136.32 53.1334 139.32 49.8667 143.72 46.8C148.12 43.6 154.786 42 163.72 42C171.453 42 178.186 43.8 183.92 47.4C189.786 50.8667 194.32 55.7334 197.52 62C200.72 68.1334 202.32 75.3334 202.32 83.6V142.8H177.12V85.6C177.12 78.1334 175.253 72.5334 171.52 68.8C167.92 65.0667 162.72 63.2 155.92 63.2C148.186 63.2 142.186 65.8 137.92 71C133.653 76.0667 131.52 83.2 131.52 92.4V142.8H106.32ZM274.762 145.6C264.895 145.6 256.162 143.533 248.562 139.4C241.095 135.133 235.229 129.2 230.962 121.6C226.829 113.867 224.762 104.8 224.762 94.4V92C224.762 81.6 226.829 72.6 230.962 65C235.095 57.2667 240.895 51.3334 248.362 47.2C255.829 42.9334 264.495 40.8 274.362 40.8C284.095 40.8 292.562 43 299.762 47.4C306.962 51.6667 312.562 57.6667 316.562 65.4C320.562 73 322.562 81.8667 322.562 92V100.6H250.362C250.629 107.4 253.162 112.933 257.962 117.2C262.762 121.467 268.629 123.6 275.562 123.6C282.629 123.6 287.829 122.067 291.162 119C294.495 115.933 297.029 112.533 298.762 108.8L319.362 119.6C317.495 123.067 314.762 126.867 311.162 131C307.695 135 303.029 138.467 297.162 141.4C291.295 144.2 283.829 145.6 274.762 145.6ZM250.562 81.8H296.962C296.429 76.0667 294.095 71.4667 289.962 68C285.962 64.5334 280.695 62.8 274.162 62.8C267.362 62.8 261.962 64.5334 257.962 68C253.962 71.4667 251.495 76.0667 250.562 81.8ZM375.792 145.6C368.725 145.6 362.392 144.4 356.792 142C351.192 139.467 346.725 135.867 343.392 131.2C340.192 126.4 338.592 120.6 338.592 113.8C338.592 107 340.192 101.333 343.392 96.8C346.725 92.1334 351.258 88.6667 356.992 86.4C362.858 84 369.525 82.8 376.992 82.8H404.192V77.2C404.192 72.5334 402.725 68.7334 399.792 65.8C396.858 62.7334 392.192 61.2 385.792 61.2C379.525 61.2 374.858 62.6667 371.792 65.6C368.725 68.4 366.725 72.0667 365.792 76.6L342.592 68.8C344.192 63.7334 346.725 59.1334 350.192 55C353.792 50.7334 358.525 47.3334 364.392 44.8C370.392 42.1334 377.658 40.8 386.192 40.8C399.258 40.8 409.592 44.0667 417.192 50.6C424.792 57.1334 428.592 66.6 428.592 79V116C428.592 120 430.458 122 434.192 122H442.192V142.8H425.392C420.458 142.8 416.392 141.6 413.192 139.2C409.992 136.8 408.392 133.6 408.392 129.6V129.4H404.592C404.058 131 402.858 133.133 400.992 135.8C399.125 138.333 396.192 140.6 392.192 142.6C388.192 144.6 382.725 145.6 375.792 145.6ZM380.192 125.2C387.258 125.2 392.992 123.267 397.392 119.4C401.925 115.4 404.192 110.133 404.192 103.6V101.6H378.792C374.125 101.6 370.458 102.6 367.792 104.6C365.125 106.6 363.792 109.4 363.792 113C363.792 116.6 365.192 119.533 367.992 121.8C370.792 124.067 374.858 125.2 380.192 125.2ZM453.864 93.6V90.4C453.864 80 455.93 71.1334 460.064 63.8C464.197 56.3334 469.664 50.6667 476.464 46.8C483.397 42.8 490.93 40.8 499.064 40.8C508.13 40.8 514.997 42.4 519.664 45.6C524.33 48.8 527.73 52.1334 529.864 55.6H533.464V43.6H558.264V160.4C558.264 167.2 556.264 172.6 552.264 176.6C548.264 180.733 542.93 182.8 536.264 182.8H339.864V160.8H527.464C531.197 160.8 533.064 158.8 533.064 154.8V129H529.464C528.13 131.133 526.264 133.333 523.864 135.6C521.464 137.733 518.264 139.533 514.264 141C510.264 142.467 505.197 143.2 499.064 143.2C490.93 143.2 483.397 141.267 476.464 137.4C469.664 133.4 464.197 127.733 460.064 120.4C455.93 112.933 453.864 104 453.864 93.6ZM506.264 121.2C513.997 121.2 520.464 118.733 525.664 113.8C530.864 108.867 533.464 101.933 533.464 93V91C533.464 81.9334 530.864 75 525.664 70.2C520.597 65.2667 514.13 62.8 506.264 62.8C498.53 62.8 492.064 65.2667 486.864 70.2C481.664 75 479.064 81.9334 479.064 91V93C479.064 101.933 481.664 108.867 486.864 113.8C492.064 118.733 498.53 121.2 506.264 121.2ZM631.403 145.6C621.536 145.6 612.803 143.533 605.203 139.4C597.736 135.133 591.869 129.2 587.603 121.6C583.469 113.867 581.403 104.8 581.403 94.4V92C581.403 81.6 583.469 72.6 587.603 65C591.736 57.2667 597.536 51.3334 605.003 47.2C612.469 42.9334 621.136 40.8 631.003 40.8C640.736 40.8 649.203 43 656.403 47.4C663.603 51.6667 669.203 57.6667 673.203 65.4C677.203 73 679.203 81.8667 679.203 92V100.6H607.003C607.269 107.4 609.803 112.933 614.603 117.2C619.403 121.467 625.269 123.6 632.203 123.6C639.269 123.6 644.469 122.067 647.803 119C651.136 115.933 653.669 112.533 655.403 108.8L676.003 119.6C674.136 123.067 671.403 126.867 667.803 131C664.336 135 659.669 138.467 653.803 141.4C647.936 144.2 640.469 145.6 631.403 145.6ZM607.203 81.8H653.603C653.069 76.0667 650.736 71.4667 646.603 68C642.603 64.5334 637.336 62.8 630.803 62.8C624.003 62.8 618.603 64.5334 614.603 68C610.603 71.4667 608.136 76.0667 607.203 81.8Z" fill="url(#paint0_radial_15_2)"/>
<path d="M0 232.29V163.386H12.276V169.326H14.058C15.18 167.412 16.929 165.729 19.305 164.277C21.681 162.759 25.08 162 29.502 162C33.462 162 37.125 162.99 40.491 164.97C43.857 166.884 46.563 169.722 48.609 173.484C50.655 177.246 51.678 181.8 51.678 187.146V188.73C51.678 194.076 50.655 198.63 48.609 202.392C46.563 206.154 43.857 209.025 40.491 211.005C37.125 212.919 33.462 213.876 29.502 213.876C26.532 213.876 24.024 213.513 21.978 212.787C19.998 212.127 18.381 211.269 17.127 210.213C15.939 209.091 14.982 207.969 14.256 206.847H12.474V232.29H0ZM25.74 202.986C29.634 202.986 32.835 201.765 35.343 199.323C37.917 196.815 39.204 193.185 39.204 188.433V187.443C39.204 182.691 37.917 179.094 35.343 176.652C32.769 174.144 29.568 172.89 25.74 172.89C21.912 172.89 18.711 174.144 16.137 176.652C13.563 179.094 12.276 182.691 12.276 187.443V188.433C12.276 193.185 13.563 196.815 16.137 199.323C18.711 201.765 21.912 202.986 25.74 202.986ZM63.1319 212.49V163.386H75.4079V168.93H77.1899C77.9159 166.95 79.1039 165.498 80.7539 164.574C82.4699 163.65 84.4499 163.188 86.6939 163.188H92.6339V174.276H86.4959C83.3279 174.276 80.7209 175.134 78.6749 176.85C76.6289 178.5 75.6059 181.074 75.6059 184.572V212.49H63.1319ZM124.007 213.876C119.123 213.876 114.734 212.886 110.84 210.906C106.946 208.926 103.877 206.055 101.633 202.293C99.3896 198.531 98.2676 194.01 98.2676 188.73V187.146C98.2676 181.866 99.3896 177.345 101.633 173.583C103.877 169.821 106.946 166.95 110.84 164.97C114.734 162.99 119.123 162 124.007 162C128.891 162 133.28 162.99 137.174 164.97C141.068 166.95 144.137 169.821 146.381 173.583C148.625 177.345 149.747 181.866 149.747 187.146V188.73C149.747 194.01 148.625 198.531 146.381 202.293C144.137 206.055 141.068 208.926 137.174 210.906C133.28 212.886 128.891 213.876 124.007 213.876ZM124.007 202.788C127.835 202.788 131.003 201.567 133.511 199.125C136.019 196.617 137.273 193.053 137.273 188.433V187.443C137.273 182.823 136.019 179.292 133.511 176.85C131.069 174.342 127.901 173.088 124.007 173.088C120.179 173.088 117.011 174.342 114.503 176.85C111.995 179.292 110.741 182.823 110.741 187.443V188.433C110.741 193.053 111.995 196.617 114.503 199.125C117.011 201.567 120.179 202.788 124.007 202.788ZM153.715 212.49L171.535 187.74L153.913 163.386H168.367L179.554 179.721H181.336L192.523 163.386H206.977L189.355 187.74L207.175 212.49H192.523L181.336 195.957H179.554L168.367 212.49H153.715ZM222.005 232.29V221.4H248.735C250.583 221.4 251.507 220.41 251.507 218.43V206.055H249.725C249.197 207.177 248.372 208.299 247.25 209.421C246.128 210.543 244.61 211.467 242.696 212.193C240.782 212.919 238.34 213.282 235.37 213.282C231.542 213.282 228.176 212.424 225.272 210.708C222.434 208.926 220.223 206.484 218.639 203.382C217.055 200.28 216.263 196.716 216.263 192.69V163.386H228.737V191.7C228.737 195.396 229.628 198.168 231.41 200.016C233.258 201.864 235.865 202.788 239.231 202.788C243.059 202.788 246.029 201.534 248.141 199.026C250.253 196.452 251.309 192.888 251.309 188.334V163.386H263.783V221.202C263.783 224.568 262.793 227.241 260.813 229.221C258.833 231.267 256.193 232.29 252.893 232.29H222.005Z" fill="white"/>
</g>
</g>
<defs>
<radialGradient id="paint0_radial_15_2" cx="0" cy="0" r="1" gradientUnits="userSpaceOnUse" gradientTransform="translate(337.07 73.3) rotate(90) scale(127.5 351)">
<stop stop-color="#FF3CD5"/>
<stop offset="0.360577" stop-color="#DD55FF"/>
<stop offset="1" stop-color="#FF477B"/>
</radialGradient>
<clipPath id="clip0_15_2">
<rect width="680" height="232" fill="white"/>
</clipPath>
</defs>
</svg>
